<svg width="56" height="56" viewBox="0 0 56 56" fill="none" xmlns="http://www.w3.org/2000/svg">
<g filter="url(#filter0_i_16792_36050)">
<rect width="56" height="56" rx="28" fill="white" fill-opacity="0.15"/>
</g>
<rect x="8" y="8" width="40" height="40" rx="20" fill="white"/>
<path d="M20.8703 24.8541L22.3981 20.2135H33.6018L35.1295 24.8541M33.6018 30.0104C33.1966 30.0104 32.808 29.8474 32.5215 29.5573C32.235 29.2672 32.074 28.8738 32.074 28.4635C32.074 28.0532 32.235 27.6598 32.5215 27.3697C32.808 27.0796 33.1966 26.9166 33.6018 26.9166C34.007 26.9166 34.3956 27.0796 34.6821 27.3697C34.9686 27.6598 35.1295 28.0532 35.1295 28.4635C35.1295 28.8738 34.9686 29.2672 34.6821 29.5573C34.3956 29.8474 34.007 30.0104 33.6018 30.0104ZM22.3981 30.0104C21.9929 30.0104 21.6043 29.8474 21.3178 29.5573C21.0313 29.2672 20.8703 28.8738 20.8703 28.4635C20.8703 28.0532 21.0313 27.6598 21.3178 27.3697C21.6043 27.0796 21.9929 26.9166 22.3981 26.9166C22.8033 26.9166 23.1919 27.0796 23.4784 27.3697C23.7649 27.6598 23.9258 28.0532 23.9258 28.4635C23.9258 28.8738 23.7649 29.2672 23.4784 29.5573C23.1919 29.8474 22.8033 30.0104 22.3981 30.0104ZM35.0481 19.6979C34.8444 19.0998 34.274 18.6666 33.6018 18.6666H22.3981C21.7258 18.6666 21.1555 19.0998 20.9518 19.6979L18.8333 25.8854V34.1354C18.8333 34.4089 18.9406 34.6712 19.1316 34.8646C19.3226 35.058 19.5816 35.1666 19.8518 35.1666H20.8703C21.1404 35.1666 21.3995 35.058 21.5905 34.8646C21.7815 34.6712 21.8888 34.4089 21.8888 34.1354V33.1041H34.111V34.1354C34.111 34.4089 34.2183 34.6712 34.4093 34.8646C34.6004 35.058 34.8594 35.1666 35.1295 35.1666H36.1481C36.4182 35.1666 36.6773 35.058 36.8683 34.8646C37.0593 34.6712 37.1666 34.4089 37.1666 34.1354V25.8854L35.0481 19.6979Z" fill="black"/>
<defs>
<filter id="filter0_i_16792_36050" x="0" y="0" width="56" height="56" filterUnits="userSpaceOnUse" color-interpolation-filters="sRGB">
<feFlood flood-opacity="0" result="BackgroundImageFix"/>
<feBlend mode="normal" in="SourceGraphic" in2="BackgroundImageFix" result="shape"/>
<feColorMatrix in="SourceAlpha" type="matrix" values="0 0 0 0 0 0 0 0 0 0 0 0 0 0 0 0 0 0 127 0" result="hardAlpha"/>
<feOffset/>
<feGaussianBlur stdDeviation="5"/>
<feComposite in2="hardAlpha" operator="arithmetic" k2="-1" k3="1"/>
<feColorMatrix type="matrix" values="0 0 0 0 0 0 0 0 0 0 0 0 0 0 0 0 0 0 0.1 0"/>
<feBlend mode="normal" in2="shape" result="effect1_innerShadow_16792_36050"/>
</filter>
</defs>
</svg>
